<mxfile host="app.diagrams.net" modified="2024-05-09T04:30:37.389Z" agent="Mozilla/5.0 (Windows NT 10.0; Win64; x64) AppleWebKit/537.36 (KHTML, like Gecko) Chrome/124.0.0.0 Safari/537.36" etag="q2KUbNF1J_taqQO0I6AW" version="24.3.1" type="device">
  <diagram id="C5RBs43oDa-KdzZeNtuy" name="Page-1">
    <mxGraphModel dx="568" dy="297" grid="1" gridSize="10" guides="1" tooltips="1" connect="1" arrows="1" fold="1" page="1" pageScale="1" pageWidth="827" pageHeight="1169" math="0" shadow="0">
      <root>
        <mxCell id="WIyWlLk6GJQsqaUBKTNV-0" />
        <mxCell id="WIyWlLk6GJQsqaUBKTNV-1" parent="WIyWlLk6GJQsqaUBKTNV-0" />
        <mxCell id="zkfFHV4jXpPFQw0GAbJ--0" value="Karyawan" style="swimlane;fontStyle=2;align=center;verticalAlign=top;childLayout=stackLayout;horizontal=1;startSize=26;horizontalStack=0;resizeParent=1;resizeLast=0;collapsible=1;marginBottom=0;rounded=0;shadow=0;strokeWidth=1;" parent="WIyWlLk6GJQsqaUBKTNV-1" vertex="1">
          <mxGeometry x="430" y="920" width="160" height="420" as="geometry">
            <mxRectangle x="230" y="140" width="160" height="26" as="alternateBounds" />
          </mxGeometry>
        </mxCell>
        <mxCell id="zkfFHV4jXpPFQw0GAbJ--1" value="+ Nama : String&#xa;" style="text;align=left;verticalAlign=top;spacingLeft=4;spacingRight=4;overflow=hidden;rotatable=0;points=[[0,0.5],[1,0.5]];portConstraint=eastwest;" parent="zkfFHV4jXpPFQw0GAbJ--0" vertex="1">
          <mxGeometry y="26" width="160" height="26" as="geometry" />
        </mxCell>
        <mxCell id="zkfFHV4jXpPFQw0GAbJ--2" value="+ Jabatan : String" style="text;align=left;verticalAlign=top;spacingLeft=4;spacingRight=4;overflow=hidden;rotatable=0;points=[[0,0.5],[1,0.5]];portConstraint=eastwest;rounded=0;shadow=0;html=0;" parent="zkfFHV4jXpPFQw0GAbJ--0" vertex="1">
          <mxGeometry y="52" width="160" height="26" as="geometry" />
        </mxCell>
        <mxCell id="zkfFHV4jXpPFQw0GAbJ--3" value="+ Umur : int" style="text;align=left;verticalAlign=top;spacingLeft=4;spacingRight=4;overflow=hidden;rotatable=0;points=[[0,0.5],[1,0.5]];portConstraint=eastwest;rounded=0;shadow=0;html=0;" parent="zkfFHV4jXpPFQw0GAbJ--0" vertex="1">
          <mxGeometry y="78" width="160" height="26" as="geometry" />
        </mxCell>
        <mxCell id="6NI9s0WxhHKAOPoBcv3h-0" value="+ Gaji : int" style="text;align=left;verticalAlign=top;spacingLeft=4;spacingRight=4;overflow=hidden;rotatable=0;points=[[0,0.5],[1,0.5]];portConstraint=eastwest;rounded=0;shadow=0;html=0;" parent="zkfFHV4jXpPFQw0GAbJ--0" vertex="1">
          <mxGeometry y="104" width="160" height="26" as="geometry" />
        </mxCell>
        <mxCell id="zkfFHV4jXpPFQw0GAbJ--4" value="" style="line;html=1;strokeWidth=1;align=left;verticalAlign=middle;spacingTop=-1;spacingLeft=3;spacingRight=3;rotatable=0;labelPosition=right;points=[];portConstraint=eastwest;" parent="zkfFHV4jXpPFQw0GAbJ--0" vertex="1">
          <mxGeometry y="130" width="160" height="10" as="geometry" />
        </mxCell>
        <mxCell id="zkfFHV4jXpPFQw0GAbJ--5" value="+ getNama() : String&#xa;+ setNama() : Void&#xa;" style="text;align=left;verticalAlign=top;spacingLeft=4;spacingRight=4;overflow=hidden;rotatable=0;points=[[0,0.5],[1,0.5]];portConstraint=eastwest;" parent="zkfFHV4jXpPFQw0GAbJ--0" vertex="1">
          <mxGeometry y="140" width="160" height="40" as="geometry" />
        </mxCell>
        <mxCell id="6NI9s0WxhHKAOPoBcv3h-2" value="+ getJabatan() : String&#xa;+ setJabatan() : Void&#xa;" style="text;align=left;verticalAlign=top;spacingLeft=4;spacingRight=4;overflow=hidden;rotatable=0;points=[[0,0.5],[1,0.5]];portConstraint=eastwest;" parent="zkfFHV4jXpPFQw0GAbJ--0" vertex="1">
          <mxGeometry y="180" width="160" height="40" as="geometry" />
        </mxCell>
        <mxCell id="6NI9s0WxhHKAOPoBcv3h-3" value="+ getUmur() : int&#xa;+ setUmur() : Void&#xa;" style="text;align=left;verticalAlign=top;spacingLeft=4;spacingRight=4;overflow=hidden;rotatable=0;points=[[0,0.5],[1,0.5]];portConstraint=eastwest;" parent="zkfFHV4jXpPFQw0GAbJ--0" vertex="1">
          <mxGeometry y="220" width="160" height="40" as="geometry" />
        </mxCell>
        <mxCell id="6NI9s0WxhHKAOPoBcv3h-4" value="+ getGaji() : int&#xa;+ setGaji() : Void&#xa;" style="text;align=left;verticalAlign=top;spacingLeft=4;spacingRight=4;overflow=hidden;rotatable=0;points=[[0,0.5],[1,0.5]];portConstraint=eastwest;" parent="zkfFHV4jXpPFQw0GAbJ--0" vertex="1">
          <mxGeometry y="260" width="160" height="40" as="geometry" />
        </mxCell>
        <mxCell id="6NI9s0WxhHKAOPoBcv3h-6" value="+ pengalamanProjek () : int &#xa;(override)" style="text;align=left;verticalAlign=top;spacingLeft=4;spacingRight=4;overflow=hidden;rotatable=0;points=[[0,0.5],[1,0.5]];portConstraint=eastwest;" parent="zkfFHV4jXpPFQw0GAbJ--0" vertex="1">
          <mxGeometry y="300" width="160" height="40" as="geometry" />
        </mxCell>
        <mxCell id="6NI9s0WxhHKAOPoBcv3h-8" value="+ statusPernikahan () : String &#xa;(override)" style="text;align=left;verticalAlign=top;spacingLeft=4;spacingRight=4;overflow=hidden;rotatable=0;points=[[0,0.5],[1,0.5]];portConstraint=eastwest;" parent="zkfFHV4jXpPFQw0GAbJ--0" vertex="1">
          <mxGeometry y="340" width="160" height="40" as="geometry" />
        </mxCell>
        <mxCell id="2xe8VmGXL6zvPINm1xOB-9" value="+ levelPendidikan() : String &#xa;(override)" style="text;align=left;verticalAlign=top;spacingLeft=4;spacingRight=4;overflow=hidden;rotatable=0;points=[[0,0.5],[1,0.5]];portConstraint=eastwest;" parent="zkfFHV4jXpPFQw0GAbJ--0" vertex="1">
          <mxGeometry y="380" width="160" height="40" as="geometry" />
        </mxCell>
        <mxCell id="zkfFHV4jXpPFQw0GAbJ--17" value="Pengalaman" style="swimlane;fontStyle=0;align=center;verticalAlign=top;childLayout=stackLayout;horizontal=1;startSize=26;horizontalStack=0;resizeParent=1;resizeLast=0;collapsible=1;marginBottom=0;rounded=0;shadow=0;strokeWidth=1;" parent="WIyWlLk6GJQsqaUBKTNV-1" vertex="1">
          <mxGeometry x="400.0000000000001" y="320" width="222" height="520" as="geometry">
            <mxRectangle x="550" y="140" width="160" height="26" as="alternateBounds" />
          </mxGeometry>
        </mxCell>
        <mxCell id="zkfFHV4jXpPFQw0GAbJ--18" value="+ pengalamanOrganisasi : String" style="text;align=left;verticalAlign=top;spacingLeft=4;spacingRight=4;overflow=hidden;rotatable=0;points=[[0,0.5],[1,0.5]];portConstraint=eastwest;" parent="zkfFHV4jXpPFQw0GAbJ--17" vertex="1">
          <mxGeometry y="26" width="222" height="26" as="geometry" />
        </mxCell>
        <mxCell id="6NI9s0WxhHKAOPoBcv3h-16" value="+ pengalamanKerja : String" style="text;align=left;verticalAlign=top;spacingLeft=4;spacingRight=4;overflow=hidden;rotatable=0;points=[[0,0.5],[1,0.5]];portConstraint=eastwest;" parent="zkfFHV4jXpPFQw0GAbJ--17" vertex="1">
          <mxGeometry y="52" width="222" height="26" as="geometry" />
        </mxCell>
        <mxCell id="6NI9s0WxhHKAOPoBcv3h-18" value="+ statusPernikahan : String" style="text;align=left;verticalAlign=top;spacingLeft=4;spacingRight=4;overflow=hidden;rotatable=0;points=[[0,0.5],[1,0.5]];portConstraint=eastwest;" parent="zkfFHV4jXpPFQw0GAbJ--17" vertex="1">
          <mxGeometry y="78" width="222" height="26" as="geometry" />
        </mxCell>
        <mxCell id="6NI9s0WxhHKAOPoBcv3h-19" value="+ levelPendidikan : String" style="text;align=left;verticalAlign=top;spacingLeft=4;spacingRight=4;overflow=hidden;rotatable=0;points=[[0,0.5],[1,0.5]];portConstraint=eastwest;" parent="zkfFHV4jXpPFQw0GAbJ--17" vertex="1">
          <mxGeometry y="104" width="222" height="26" as="geometry" />
        </mxCell>
        <mxCell id="6NI9s0WxhHKAOPoBcv3h-20" value="+ projekIT : int" style="text;align=left;verticalAlign=top;spacingLeft=4;spacingRight=4;overflow=hidden;rotatable=0;points=[[0,0.5],[1,0.5]];portConstraint=eastwest;" parent="zkfFHV4jXpPFQw0GAbJ--17" vertex="1">
          <mxGeometry y="130" width="222" height="26" as="geometry" />
        </mxCell>
        <mxCell id="6NI9s0WxhHKAOPoBcv3h-21" value="+ gajiSebelum : int" style="text;align=left;verticalAlign=top;spacingLeft=4;spacingRight=4;overflow=hidden;rotatable=0;points=[[0,0.5],[1,0.5]];portConstraint=eastwest;" parent="zkfFHV4jXpPFQw0GAbJ--17" vertex="1">
          <mxGeometry y="156" width="222" height="26" as="geometry" />
        </mxCell>
        <mxCell id="zkfFHV4jXpPFQw0GAbJ--23" value="" style="line;html=1;strokeWidth=1;align=left;verticalAlign=middle;spacingTop=-1;spacingLeft=3;spacingRight=3;rotatable=0;labelPosition=right;points=[];portConstraint=eastwest;" parent="zkfFHV4jXpPFQw0GAbJ--17" vertex="1">
          <mxGeometry y="182" width="222" height="8" as="geometry" />
        </mxCell>
        <mxCell id="6NI9s0WxhHKAOPoBcv3h-22" value="+ getpengalamanOrganisasi () : String&#xa;+ setpengalamanOrganisasi () : Void&#xa;" style="text;align=left;verticalAlign=top;spacingLeft=4;spacingRight=4;overflow=hidden;rotatable=0;points=[[0,0.5],[1,0.5]];portConstraint=eastwest;" parent="zkfFHV4jXpPFQw0GAbJ--17" vertex="1">
          <mxGeometry y="190" width="222" height="40" as="geometry" />
        </mxCell>
        <mxCell id="6NI9s0WxhHKAOPoBcv3h-24" value="+ getpengalamanKerja () : String&#xa;+ setpengalamanKerja () : Void&#xa;" style="text;align=left;verticalAlign=top;spacingLeft=4;spacingRight=4;overflow=hidden;rotatable=0;points=[[0,0.5],[1,0.5]];portConstraint=eastwest;" parent="zkfFHV4jXpPFQw0GAbJ--17" vertex="1">
          <mxGeometry y="230" width="222" height="40" as="geometry" />
        </mxCell>
        <mxCell id="6NI9s0WxhHKAOPoBcv3h-25" value="+ getstatusPernikahan () : String&#xa;+ setstatusPernikahan () : Void&#xa;" style="text;align=left;verticalAlign=top;spacingLeft=4;spacingRight=4;overflow=hidden;rotatable=0;points=[[0,0.5],[1,0.5]];portConstraint=eastwest;" parent="zkfFHV4jXpPFQw0GAbJ--17" vertex="1">
          <mxGeometry y="270" width="222" height="40" as="geometry" />
        </mxCell>
        <mxCell id="6NI9s0WxhHKAOPoBcv3h-26" value="+ getlevelPendidikan () : String&#xa;+ setlevelPendidikan () : Void&#xa;" style="text;align=left;verticalAlign=top;spacingLeft=4;spacingRight=4;overflow=hidden;rotatable=0;points=[[0,0.5],[1,0.5]];portConstraint=eastwest;" parent="zkfFHV4jXpPFQw0GAbJ--17" vertex="1">
          <mxGeometry y="310" width="222" height="40" as="geometry" />
        </mxCell>
        <mxCell id="6NI9s0WxhHKAOPoBcv3h-27" value="+ getprojekIT () : int&#xa;+ setprojekIT () : Void&#xa;" style="text;align=left;verticalAlign=top;spacingLeft=4;spacingRight=4;overflow=hidden;rotatable=0;points=[[0,0.5],[1,0.5]];portConstraint=eastwest;" parent="zkfFHV4jXpPFQw0GAbJ--17" vertex="1">
          <mxGeometry y="350" width="222" height="40" as="geometry" />
        </mxCell>
        <mxCell id="6NI9s0WxhHKAOPoBcv3h-28" value="+ getgajiSebelum () : int&#xa;+ setgajiSebelum () : Void&#xa;" style="text;align=left;verticalAlign=top;spacingLeft=4;spacingRight=4;overflow=hidden;rotatable=0;points=[[0,0.5],[1,0.5]];portConstraint=eastwest;" parent="zkfFHV4jXpPFQw0GAbJ--17" vertex="1">
          <mxGeometry y="390" width="222" height="40" as="geometry" />
        </mxCell>
        <mxCell id="6NI9s0WxhHKAOPoBcv3h-29" value="+ prosesKehidupan () : Void" style="text;align=left;verticalAlign=top;spacingLeft=4;spacingRight=4;overflow=hidden;rotatable=0;points=[[0,0.5],[1,0.5]];portConstraint=eastwest;" parent="zkfFHV4jXpPFQw0GAbJ--17" vertex="1">
          <mxGeometry y="430" width="222" height="30" as="geometry" />
        </mxCell>
        <mxCell id="6NI9s0WxhHKAOPoBcv3h-30" value="+ Pekerjaan () : String" style="text;align=left;verticalAlign=top;spacingLeft=4;spacingRight=4;overflow=hidden;rotatable=0;points=[[0,0.5],[1,0.5]];portConstraint=eastwest;" parent="zkfFHV4jXpPFQw0GAbJ--17" vertex="1">
          <mxGeometry y="460" width="222" height="30" as="geometry" />
        </mxCell>
        <mxCell id="6NI9s0WxhHKAOPoBcv3h-31" value="+ Organisasi () : String" style="text;align=left;verticalAlign=top;spacingLeft=4;spacingRight=4;overflow=hidden;rotatable=0;points=[[0,0.5],[1,0.5]];portConstraint=eastwest;" parent="zkfFHV4jXpPFQw0GAbJ--17" vertex="1">
          <mxGeometry y="490" width="222" height="30" as="geometry" />
        </mxCell>
        <mxCell id="6NI9s0WxhHKAOPoBcv3h-46" value="" style="swimlane;fontStyle=2;align=center;verticalAlign=top;childLayout=stackLayout;horizontal=1;startSize=0;horizontalStack=0;resizeParent=1;resizeLast=0;collapsible=1;marginBottom=0;rounded=0;shadow=0;strokeWidth=1;" parent="WIyWlLk6GJQsqaUBKTNV-1" vertex="1">
          <mxGeometry x="130" y="1151" width="160" height="90" as="geometry">
            <mxRectangle x="230" y="140" width="160" height="26" as="alternateBounds" />
          </mxGeometry>
        </mxCell>
        <mxCell id="6NI9s0WxhHKAOPoBcv3h-55" value="«interface»&lt;br&gt;&lt;b&gt;Pendidikan&lt;/b&gt;" style="html=1;whiteSpace=wrap;" parent="6NI9s0WxhHKAOPoBcv3h-46" vertex="1">
          <mxGeometry width="160" height="50" as="geometry" />
        </mxCell>
        <mxCell id="6NI9s0WxhHKAOPoBcv3h-47" value="+ levelPendidikan () : Void" style="text;align=left;verticalAlign=top;spacingLeft=4;spacingRight=4;overflow=hidden;rotatable=0;points=[[0,0.5],[1,0.5]];portConstraint=eastwest;" parent="6NI9s0WxhHKAOPoBcv3h-46" vertex="1">
          <mxGeometry y="50" width="160" height="40" as="geometry" />
        </mxCell>
        <mxCell id="6NI9s0WxhHKAOPoBcv3h-56" value="" style="swimlane;fontStyle=2;align=center;verticalAlign=top;childLayout=stackLayout;horizontal=1;startSize=0;horizontalStack=0;resizeParent=1;resizeLast=0;collapsible=1;marginBottom=0;rounded=0;shadow=0;strokeWidth=1;" parent="WIyWlLk6GJQsqaUBKTNV-1" vertex="1">
          <mxGeometry x="130" y="920" width="180" height="90" as="geometry">
            <mxRectangle x="230" y="140" width="160" height="26" as="alternateBounds" />
          </mxGeometry>
        </mxCell>
        <mxCell id="6NI9s0WxhHKAOPoBcv3h-57" value="«interface»&lt;br&gt;&lt;b&gt;Keluarga&lt;/b&gt;" style="html=1;whiteSpace=wrap;" parent="6NI9s0WxhHKAOPoBcv3h-56" vertex="1">
          <mxGeometry width="180" height="50" as="geometry" />
        </mxCell>
        <mxCell id="6NI9s0WxhHKAOPoBcv3h-58" value="+ StatusPernikahan () : Void" style="text;align=left;verticalAlign=top;spacingLeft=4;spacingRight=4;overflow=hidden;rotatable=0;points=[[0,0.5],[1,0.5]];portConstraint=eastwest;" parent="6NI9s0WxhHKAOPoBcv3h-56" vertex="1">
          <mxGeometry y="50" width="180" height="40" as="geometry" />
        </mxCell>
        <mxCell id="6NI9s0WxhHKAOPoBcv3h-61" value="" style="swimlane;fontStyle=2;align=center;verticalAlign=top;childLayout=stackLayout;horizontal=1;startSize=0;horizontalStack=0;resizeParent=1;resizeLast=0;collapsible=1;marginBottom=0;rounded=0;shadow=0;strokeWidth=1;" parent="WIyWlLk6GJQsqaUBKTNV-1" vertex="1">
          <mxGeometry x="130" y="1030" width="170" height="90" as="geometry">
            <mxRectangle x="230" y="140" width="160" height="26" as="alternateBounds" />
          </mxGeometry>
        </mxCell>
        <mxCell id="6NI9s0WxhHKAOPoBcv3h-62" value="«interface»&lt;br&gt;&lt;b&gt;Projek&lt;/b&gt;" style="html=1;whiteSpace=wrap;" parent="6NI9s0WxhHKAOPoBcv3h-61" vertex="1">
          <mxGeometry width="170" height="50" as="geometry" />
        </mxCell>
        <mxCell id="6NI9s0WxhHKAOPoBcv3h-63" value="+ levelPendidikan () : Void" style="text;align=left;verticalAlign=top;spacingLeft=4;spacingRight=4;overflow=hidden;rotatable=0;points=[[0,0.5],[1,0.5]];portConstraint=eastwest;" parent="6NI9s0WxhHKAOPoBcv3h-61" vertex="1">
          <mxGeometry y="50" width="170" height="40" as="geometry" />
        </mxCell>
        <mxCell id="6NI9s0WxhHKAOPoBcv3h-65" value="" style="swimlane;fontStyle=2;align=center;verticalAlign=top;childLayout=stackLayout;horizontal=1;startSize=0;horizontalStack=0;resizeParent=1;resizeLast=0;collapsible=1;marginBottom=0;rounded=0;shadow=0;strokeWidth=1;" parent="WIyWlLk6GJQsqaUBKTNV-1" vertex="1">
          <mxGeometry x="430" y="150" width="160" height="90" as="geometry">
            <mxRectangle x="230" y="140" width="160" height="26" as="alternateBounds" />
          </mxGeometry>
        </mxCell>
        <mxCell id="6NI9s0WxhHKAOPoBcv3h-66" value="«abstract»&lt;br&gt;&lt;b&gt;Kehidupan&lt;/b&gt;" style="html=1;whiteSpace=wrap;" parent="6NI9s0WxhHKAOPoBcv3h-65" vertex="1">
          <mxGeometry width="160" height="50" as="geometry" />
        </mxCell>
        <mxCell id="6NI9s0WxhHKAOPoBcv3h-67" value="+ prosesKehidupan () : Void&#xa;(abstract)" style="text;align=left;verticalAlign=top;spacingLeft=4;spacingRight=4;overflow=hidden;rotatable=0;points=[[0,0.5],[1,0.5]];portConstraint=eastwest;" parent="6NI9s0WxhHKAOPoBcv3h-65" vertex="1">
          <mxGeometry y="50" width="160" height="40" as="geometry" />
        </mxCell>
        <mxCell id="6NI9s0WxhHKAOPoBcv3h-68" value="Utils" style="swimlane;fontStyle=1;align=center;verticalAlign=top;childLayout=stackLayout;horizontal=1;startSize=26;horizontalStack=0;resizeParent=1;resizeParentMax=0;resizeLast=0;collapsible=1;marginBottom=0;whiteSpace=wrap;html=1;" parent="WIyWlLk6GJQsqaUBKTNV-1" vertex="1">
          <mxGeometry x="140" y="750" width="160" height="78" as="geometry" />
        </mxCell>
        <mxCell id="6NI9s0WxhHKAOPoBcv3h-71" value="+ inputTestString: Void" style="text;strokeColor=none;fillColor=none;align=left;verticalAlign=top;spacingLeft=4;spacingRight=4;overflow=hidden;rotatable=0;points=[[0,0.5],[1,0.5]];portConstraint=eastwest;whiteSpace=wrap;html=1;" parent="6NI9s0WxhHKAOPoBcv3h-68" vertex="1">
          <mxGeometry y="26" width="160" height="26" as="geometry" />
        </mxCell>
        <mxCell id="6NI9s0WxhHKAOPoBcv3h-73" value="+ inputTestString_2: Void" style="text;strokeColor=none;fillColor=none;align=left;verticalAlign=top;spacingLeft=4;spacingRight=4;overflow=hidden;rotatable=0;points=[[0,0.5],[1,0.5]];portConstraint=eastwest;whiteSpace=wrap;html=1;" parent="6NI9s0WxhHKAOPoBcv3h-68" vertex="1">
          <mxGeometry y="52" width="160" height="26" as="geometry" />
        </mxCell>
        <mxCell id="2xe8VmGXL6zvPINm1xOB-0" value="" style="endArrow=classic;html=1;rounded=0;exitX=0.505;exitY=0.967;exitDx=0;exitDy=0;exitPerimeter=0;" parent="WIyWlLk6GJQsqaUBKTNV-1" source="6NI9s0WxhHKAOPoBcv3h-31" target="zkfFHV4jXpPFQw0GAbJ--0" edge="1">
          <mxGeometry width="50" height="50" relative="1" as="geometry">
            <mxPoint x="410" y="980" as="sourcePoint" />
            <mxPoint x="460" y="930" as="targetPoint" />
          </mxGeometry>
        </mxCell>
        <mxCell id="2xe8VmGXL6zvPINm1xOB-1" value="" style="endArrow=classic;html=1;rounded=0;entryX=0.5;entryY=0;entryDx=0;entryDy=0;exitX=0.506;exitY=1.058;exitDx=0;exitDy=0;exitPerimeter=0;" parent="WIyWlLk6GJQsqaUBKTNV-1" source="6NI9s0WxhHKAOPoBcv3h-67" target="zkfFHV4jXpPFQw0GAbJ--17" edge="1">
          <mxGeometry width="50" height="50" relative="1" as="geometry">
            <mxPoint x="580" y="360" as="sourcePoint" />
            <mxPoint x="540" y="280" as="targetPoint" />
          </mxGeometry>
        </mxCell>
        <mxCell id="2xe8VmGXL6zvPINm1xOB-6" value="" style="endArrow=none;html=1;rounded=0;exitX=1;exitY=1;exitDx=0;exitDy=0;entryX=0;entryY=0.5;entryDx=0;entryDy=0;" parent="WIyWlLk6GJQsqaUBKTNV-1" source="6NI9s0WxhHKAOPoBcv3h-62" target="zkfFHV4jXpPFQw0GAbJ--5" edge="1">
          <mxGeometry width="50" height="50" relative="1" as="geometry">
            <mxPoint x="410" y="1150" as="sourcePoint" />
            <mxPoint x="460" y="1100" as="targetPoint" />
          </mxGeometry>
        </mxCell>
        <mxCell id="2xe8VmGXL6zvPINm1xOB-7" value="" style="endArrow=none;html=1;rounded=0;exitX=1;exitY=1;exitDx=0;exitDy=0;entryX=0;entryY=0.5;entryDx=0;entryDy=0;" parent="WIyWlLk6GJQsqaUBKTNV-1" source="6NI9s0WxhHKAOPoBcv3h-55" target="zkfFHV4jXpPFQw0GAbJ--5" edge="1">
          <mxGeometry width="50" height="50" relative="1" as="geometry">
            <mxPoint x="410" y="1160" as="sourcePoint" />
            <mxPoint x="460" y="1110" as="targetPoint" />
          </mxGeometry>
        </mxCell>
        <mxCell id="2xe8VmGXL6zvPINm1xOB-8" value="" style="endArrow=none;html=1;rounded=0;exitX=1;exitY=1;exitDx=0;exitDy=0;" parent="WIyWlLk6GJQsqaUBKTNV-1" source="6NI9s0WxhHKAOPoBcv3h-57" edge="1">
          <mxGeometry width="50" height="50" relative="1" as="geometry">
            <mxPoint x="410" y="1160" as="sourcePoint" />
            <mxPoint x="430" y="1080" as="targetPoint" />
          </mxGeometry>
        </mxCell>
      </root>
    </mxGraphModel>
  </diagram>
</mxfile>
